<svg width="36" height="36" viewBox="0 0 36 36" fill="none" xmlns="http://www.w3.org/2000/svg">
  <rect width="36" height="36" rx="10" fill="#F5F6F8"/>
  <path d="M18 9C12.477 9 8 13.477 8 19V24.5C8 25.88 9.12 27 10.5 27H12.5C13.88 27 15 25.88 15 24.5V20.5C15 19.12 13.88 18 12.5 18C12.05 18 11.62 18.09 11.23 18.26C11.4 13.88 14.52 11 18 11C21.48 11 24.6 13.88 24.77 18.26C24.38 18.09 23.95 18 23.5 18C22.12 18 21 19.12 21 20.5V24.5C21 25.88 22.12 27 23.5 27H25.5C26.88 27 28 25.88 28 24.5V19C28 13.477 23.523 9 18 9Z" fill="#111827"/>
  <path d="M17 14.5C17 13.6716 17.6716 13 18.5 13C19.3284 13 20 13.6716 20 14.5V21.5C20 22.3284 19.3284 23 18.5 23C17.6716 23 17 22.3284 17 21.5V14.5Z" fill="#2E7CF6"/>
</svg>
